<svg width="19" height="17" viewBox="0 0 19 17" fill="none" xmlns="http://www.w3.org/2000/svg">
<path d="M3.99198 16.1818C3.09955 16.1818 2.34804 15.7826 1.73743 14.9841C1.1738 14.1386 0.891978 12.9644 0.891978 11.4614C0.891978 8.97197 1.40864 6.83485 2.44198 5.05C3.52228 3.21818 5.00183 1.69167 6.88061 0.470455L8.1488 2.09091C6.5988 3.35909 5.42455 4.65076 4.62607 5.96591C3.82758 7.23409 3.42834 8.85454 3.42834 10.8273C3.52228 10.7803 3.71016 10.7568 3.99198 10.7568C4.69652 10.7568 5.33061 10.9682 5.89425 11.3909C6.50486 11.8136 6.81016 12.4712 6.81016 13.3636C6.81016 14.2561 6.52834 14.9606 5.96471 15.4773C5.44804 15.947 4.79046 16.1818 3.99198 16.1818ZM13.9261 16.1818C13.0336 16.1818 12.2821 15.7826 11.6715 14.9841C11.1079 14.1386 10.8261 12.9644 10.8261 11.4614C10.8261 8.97197 11.3427 6.83485 12.3761 5.05C13.4564 3.21818 14.9359 1.69167 16.8147 0.470455L18.0829 2.09091C16.5329 3.35909 15.3586 4.65076 14.5602 5.96591C13.7617 7.23409 13.3624 8.85454 13.3624 10.8273C13.4564 10.7803 13.6443 10.7568 13.9261 10.7568C14.6306 10.7568 15.2647 10.9682 15.8283 11.3909C16.4389 11.8136 16.7443 12.4712 16.7443 13.3636C16.7443 14.2561 16.4624 14.9606 15.8988 15.4773C15.3821 15.947 14.7246 16.1818 13.9261 16.1818Z" fill="#CFCFCF"/>
</svg>
