<svg width="60" height="60" viewBox="0 0 60 60" xmlns="http://www.w3.org/2000/svg">
<path d="M54.4336 47.3438L38.1445 33.5742C38.8867 32.4023 39.2969 30.5859 39.375 28.125C39.4531 25.3516 38.3594 22.832 36.0938 20.5664C33.3203 17.793 30.0391 16.0352 26.25 15.293C22.4609 14.5508 19.4531 15.1953 17.2266 17.2266C15.1562 19.4922 14.502 22.5195 15.2637 26.3086C16.0254 30.0977 17.793 33.3789 20.5664 36.1523C22.7148 38.3008 25.2344 39.375 28.125 39.375C30.4297 39.375 32.2461 38.9844 33.5742 38.2031L47.4023 54.4336C42.168 58.1445 36.3672 60 30 60C25.9375 60 22.0508 59.209 18.3398 57.627C14.6289 56.0449 11.4355 53.916 8.75977 51.2402C6.08398 48.5645 3.95508 45.3711 2.37305 41.6602C0.791016 37.9492 0 34.0625 0 30C0 25.9375 0.791016 22.0508 2.37305 18.3398C3.95508 14.6289 6.08398 11.4355 8.75977 8.75977C11.4355 6.08398 14.6289 3.95508 18.3398 2.37305C22.0508 0.791016 25.9375 0 30 0C34.0625 0 37.9492 0.791016 41.6602 2.37305C45.3711 3.95508 48.5645 6.08398 51.2402 8.75977C53.916 11.4355 56.0449 14.6289 57.627 18.3398C59.209 22.0508 60 25.9375 60 30C60 36.3672 58.1445 42.1484 54.4336 47.3438Z" fill="#ffff"/>
</svg>
